<svg preserveAspectRatio="none" width="100%" height="100%" overflow="visible" style="display: block;" viewBox="0 0 21 17" fill="none" xmlns="http://www.w3.org/2000/svg">
<g id="Fingerprint_Logo_B&#38;W">
<path id="Vector 11" d="M3.28958 14.2255C2.97303 13.9988 2.88516 13.844 2.62608 13.5753L1.84315 14.4378C2.11287 14.7693 2.29025 14.9293 2.62608 15.1942L3.28958 14.2255Z" fill="var(--fill-0, white)"/>
<path id="Vector 93" d="M15.949 0.490992C15.5923 0.355504 15.3777 0.287553 14.9537 0.185782L14.7414 1.30046C15.0602 1.36497 15.2445 1.426 15.5774 1.55259L15.949 0.490992Z" fill="var(--fill-0, white)"/>
<path id="Vector 94" d="M14.5822 1.26083C14.2494 1.19444 14.0651 1.16606 13.7462 1.15467L13.7728 0.0267221C14.1743 0.0490505 14.4011 0.0839991 14.8078 0.159422L14.5822 1.26083Z" fill="var(--fill-0, white)"/>
<path id="Vector 95" d="M13.5869 1.15437C13.1837 1.13413 12.939 1.12851 12.4723 1.12783V0.013149C12.9642 0.0134008 13.2372 0.0142366 13.6267 0.0396889L13.5869 1.15437Z" fill="var(--fill-0, white)"/>
<path id="Vector 96" d="M17.1301 11.8765C16.8833 12.0543 16.7367 12.1536 16.4268 12.3277L16.9045 13.376C17.3212 13.1747 17.5087 13.0259 17.8334 12.8054L17.1301 11.8765Z" fill="var(--fill-0, white)"/>
<path id="Vector 97" d="M18.5234 10.47C18.3368 10.7199 18.2046 10.8565 17.9528 11.1467L18.8817 11.8899C19.1332 11.6136 19.2701 11.4456 19.5054 11.1069L18.5234 10.47Z" fill="var(--fill-0, white)"/>
<path id="Vector 5" d="M8.54455 16.8926V15.7779H9.49998V16.8926H8.54455Z" fill="var(--fill-0, white)"/>
<path id="Vector 6" d="M8.3586 15.7648H7.37662V16.8794H8.3586V15.7648Z" fill="var(--fill-0, white)"/>
<path id="Vector 7" d="M7.23074 15.7513C6.86217 15.7564 6.60651 15.7274 6.26204 15.6452C6.22576 16.0805 6.20543 16.3378 6.16915 16.7731C6.5337 16.851 6.80444 16.8995 7.23074 16.8793V15.7513Z" fill="var(--fill-0, white)"/>
<path id="Vector 8" d="M6.11608 15.6186C6.11608 15.6186 5.54963 15.4671 5.24027 15.3665L5.02795 16.4944C5.51325 16.6725 5.74895 16.7269 6.0232 16.7333L6.11608 15.6186Z" fill="var(--fill-0, white)"/>
<path id="Vector 9" d="M5.10763 15.3136C4.79446 15.1928 4.61812 15.1236 4.27162 14.9287L3.84698 15.9903C4.24159 16.2049 4.46545 16.2956 4.86877 16.4283L5.10763 15.3136Z" fill="var(--fill-0, white)"/>
<path id="Vector 10" d="M3.4222 14.3315C3.68984 14.5532 3.85295 14.6582 4.15204 14.8358L3.7274 15.9239C3.34277 15.7104 3.13082 15.5681 2.7587 15.287L3.4222 14.3315Z" fill="var(--fill-0, white)"/>
<path id="Vector 12" d="M1.73704 14.3182L2.51997 13.4424L2.22803 13.0708L1.96263 12.6196L1.047 13.3893L1.32567 13.867L1.73704 14.3182Z" fill="var(--fill-0, white)"/>
<path id="Vector 13" d="M1.51137 11.6377C1.62655 11.9934 1.70587 12.178 1.86966 12.487L0.980572 13.2565C0.718068 12.8479 0.6012 12.6107 0.463044 12.1683L1.51137 11.6377Z" fill="var(--fill-0, white)"/>
<path id="Vector 14" d="M1.4583 11.5184C1.3268 11.0929 1.27068 10.8602 1.21944 10.4568L0.0782255 10.8018C0.13321 11.2617 0.196057 11.5322 0.383434 12.0492L1.4583 11.5184Z" fill="var(--fill-0, white)"/>
<path id="Vector 15" d="M1.2194 9.382C1.18882 9.74653 1.19837 9.94484 1.2194 10.2976L0.0649137 10.6427C-0.00364245 10.1974 -0.0196197 9.93636 0.0251039 9.43508L1.2194 9.382Z" fill="var(--fill-0, white)"/>
<path id="Vector 16" d="M1.40516 8.2275C1.33881 8.42655 1.21938 8.85119 1.21938 9.20948L0.0383546 9.27583C0.0528661 8.83552 0.0581326 8.60364 0.197594 8.17442L1.40516 8.2275Z" fill="var(--fill-0, white)"/>
<path id="Vector 17" d="M1.80335 7.20581C1.63693 7.52719 1.56158 7.71717 1.44506 8.06836L0.237497 8.01528C0.355931 7.55643 0.44525 7.30252 0.675405 6.86079L1.80335 7.20581Z" fill="var(--fill-0, white)"/>
<path id="Vector 18" d="M2.37392 6.28993C2.18015 6.5618 2.07693 6.7384 1.8962 7.07286L0.741716 6.71457C0.947573 6.27604 1.08044 6.04605 1.3654 5.67951L2.37392 6.28993Z" fill="var(--fill-0, white)"/>
<path id="Vector 19" d="M3.15687 5.45409C2.86561 5.71388 2.72023 5.87312 2.4801 6.17067L1.47159 5.54698C1.7383 5.18901 1.90614 4.99681 2.26778 4.68443L3.15687 5.45409Z" fill="var(--fill-0, white)"/>
<path id="Vector 20" d="M4.09885 4.75065C3.77718 4.9512 3.58705 5.08587 3.27612 5.34779L2.38703 4.56487C2.71306 4.26954 2.92591 4.10363 3.31593 3.86156L4.09885 4.75065Z" fill="var(--fill-0, white)"/>
<path id="Vector 21" d="M5.10755 4.23311C4.77532 4.36365 4.58162 4.46358 4.23173 4.65775L3.44881 3.78193C3.86591 3.53079 4.11118 3.40554 4.59002 3.21132L5.10755 4.23311Z" fill="var(--fill-0, white)"/>
<path id="Vector 22" d="M6.15589 3.9145C5.77914 3.97843 5.58742 4.04551 5.25353 4.1799L4.74928 3.15811C5.15946 2.97945 5.39352 2.91086 5.81087 2.8529L6.15589 3.9145Z" fill="var(--fill-0, white)"/>
<path id="Vector 23" d="M7.28378 3.7817C6.89404 3.77937 6.68244 3.80501 6.31507 3.88786L5.93024 2.79972C6.41137 2.68901 6.68404 2.66341 7.17762 2.66702L7.28378 3.7817Z" fill="var(--fill-0, white)"/>
<path id="Vector 24" d="M8.41183 3.78192H7.41659L7.33697 2.66724L8.38529 2.65397L8.41183 3.78192Z" fill="var(--fill-0, #DADDE2)"/>
<path id="Vector 25" d="M8.54456 3.76865L8.53129 2.65397H9.59289V3.76865H8.54456Z" fill="var(--fill-0, #ABABAB)"/>
<path id="Vector 26" d="M10.7607 3.76877H9.73887V2.64082H10.7607V3.76877Z" fill="var(--fill-0, #727272)"/>
<path id="Vector 27" d="M10.9329 3.78192V2.65397H11.9547V3.78192H10.9329Z" fill="var(--fill-0, #918F8F)"/>
<path id="Vector 28" d="M12.1141 3.78192V2.65397H13.1358V3.78192H12.1141Z" fill="var(--fill-0, #D9D9D9)"/>
<path id="Vector 30" d="M12.1141 3.78192V2.65397H13.1358V3.78192H12.1141Z" fill="var(--fill-0, #DADDE2)"/>
<path id="Vector 29" d="M10.3094 6.40917V5.28122H11.3312V6.40917H10.3094Z" fill="var(--fill-0, #ABABAB)"/>
<path id="Vector 34" d="M9.46009 9.01055V7.8826H10.4819V9.01055H9.46009Z" fill="var(--fill-0, #ABABAB)"/>
<path id="Vector 39" d="M8.7966 11.6776V10.5098H9.80512V11.6776H8.7966Z" fill="var(--fill-0, #ABABAB)"/>
<path id="Vector 41" d="M11.1321 11.6776V10.5098H12.1406V11.6776H11.1321Z" fill="var(--fill-0, #ABABAB)"/>
<path id="Vector 40" d="M9.96431 11.6776V10.5098H10.9728V11.6776H9.96431Z" fill="var(--fill-0, #918F8F)"/>
<path id="Vector 74" d="M8.58421 14.3053V13.1375H9.59272V14.3053H8.58421Z" fill="var(--fill-0, #ABABAB)"/>
<path id="Vector 78" d="M7.38999 14.2786V13.1108H8.3985V14.2786H7.38999Z" fill="var(--fill-0, #918F8F)"/>
<path id="Vector 75" d="M10.9197 14.3053V13.1375H11.9282V14.3053H10.9197Z" fill="var(--fill-0, #727272)"/>
<path id="Vector 77" d="M12.1141 14.3053V13.1375H13.1226V14.3053H12.1141Z" fill="var(--fill-0, #ABABAB)"/>
<path id="Vector 76" d="M9.75191 14.3053V13.1375H10.7604V14.3053H9.75191Z" fill="var(--fill-0, white)"/>
<path id="Vector 37" d="M11.7424 9.01055V7.8826H12.7642V9.01055H11.7424Z" fill="var(--fill-0, #727272)"/>
<path id="Vector 36" d="M10.6012 9.01055V7.8826H11.623V9.01055H10.6012Z" fill="var(--fill-0, #918F8F)"/>
<path id="Vector 33" d="M7.97373 6.40917V5.28122H8.99552V6.40917H7.97373Z" fill="var(--fill-0, #DADDE2)"/>
<path id="Vector 32" d="M9.14155 6.40917V5.28122H10.1633V6.40917H9.14155Z" fill="var(--fill-0, #727272)"/>
<path id="Vector 44" d="M10.097 1.12795V0H11.1188V1.12795H10.097Z" fill="var(--fill-0, white)"/>
<path id="Vector 45" d="M11.2913 1.12795V0H12.3131V1.12795H11.2913Z" fill="var(--fill-0, white)"/>
<path id="Vector 35" d="M8.31889 9.01055V7.8826H9.34068V9.01055H8.31889Z" fill="var(--fill-0, #727272)"/>
<path id="Vector 38" d="M7.62879 11.6245V10.5098C8.01094 10.5318 8.2302 10.5338 8.66384 10.5098V11.6245C8.26938 11.6483 8.04087 11.6436 7.62879 11.6245Z" fill="var(--fill-0, #DADDE2)"/>
<path id="Vector 31" d="M11.4506 6.40917V5.28122H12.4724V6.40917H11.4506Z" fill="var(--fill-0, #727272)"/>
<path id="Vector 42" d="M14.2373 3.90145C13.8769 3.80014 13.6729 3.76501 13.3084 3.76875V2.65408C13.7675 2.62844 14.0254 2.66387 14.4761 2.80005L14.2373 3.90145Z" fill="var(--fill-0, #ABABAB)"/>
<path id="Vector 43" d="M14.4096 3.94116L14.6087 2.83975C14.8342 2.89283 15.2983 3.03153 15.6703 3.27766L15.2854 4.37907C14.9404 4.14021 14.7805 4.07184 14.4096 3.94116Z" fill="var(--fill-0, #727272)"/>
<path id="Vector 46" d="M16.042 5.06912C15.7943 4.78728 15.6516 4.64439 15.3785 4.44543L15.8031 3.3971C16.2144 3.60627 16.3941 3.7723 16.7453 4.12695L16.042 5.06912Z" fill="var(--fill-0, white)"/>
<path id="Vector 47" d="M16.5727 5.98464C16.45 5.68306 16.3582 5.50992 16.1348 5.18844L16.8513 4.24627C17.1991 4.65415 17.3535 4.88588 17.5281 5.30787L16.5727 5.98464Z" fill="var(--fill-0, #ABABAB)"/>
<path id="Vector 48" d="M17.9397 6.67494C17.8764 6.19269 17.8025 5.91968 17.5946 5.42756L16.6259 6.13087C16.7382 6.46781 16.7693 6.65666 16.7852 6.99341L17.9397 6.67494Z" fill="var(--fill-0, #DADDE2)"/>
<path id="Vector 49" d="M16.6391 8.09472C16.7511 7.74132 16.7767 7.5345 16.7718 7.15255L17.9528 6.83407C17.9622 7.39724 17.9444 7.68254 17.8599 8.1478L16.6391 8.09472Z" fill="var(--fill-0, #727272)"/>
<path id="Vector 50" d="M17.7936 8.32009L16.5993 8.25374C16.4676 8.58365 16.3657 8.7634 16.1481 9.07648L17.2495 9.48785C17.5014 9.08899 17.6245 8.83827 17.7936 8.32009Z" fill="var(--fill-0, #ABABAB)"/>
<path id="Vector 51" d="M13.5606 7.80285C13.4541 7.86377 13.2774 7.87507 12.8971 7.88247L12.9103 8.99715C13.3649 9.01173 13.6051 8.99782 13.9719 8.87772L13.5606 7.80285Z" fill="var(--fill-0, #ABABAB)"/>
<path id="Vector 52" d="M16.2676 10.5496L15.4581 9.77998C15.7122 9.55339 15.8371 9.42887 16.042 9.20937L17.1567 9.62074C16.8415 10.0676 16.644 10.2625 16.2676 10.5496Z" fill="var(--fill-0, white)"/>
<path id="Vector 53" d="M16.1482 10.669L15.3121 9.87276C14.9934 10.0766 14.8052 10.1801 14.4363 10.3239L15.06 11.2661C15.491 11.0853 15.7285 10.9457 16.1482 10.669Z" fill="var(--fill-0, #ABABAB)"/>
<path id="Vector 54" d="M14.9141 11.3194L14.2638 10.3639C13.9538 10.4691 13.7637 10.5054 13.388 10.5099L13.7861 11.598C14.2301 11.5356 14.4771 11.4743 14.9141 11.3194Z" fill="var(--fill-0, #727272)"/>
<path id="Vector 55" d="M13.2287 10.4967C12.8651 10.5092 12.6642 10.5092 12.2998 10.4967V11.6512C12.9018 11.6785 13.2087 11.6804 13.6136 11.6246L13.2287 10.4967Z" fill="var(--fill-0, #DADDE2)"/>
<path id="Vector 56" d="M7.49602 10.5233C7.26622 10.4678 7.14888 10.4121 6.9785 10.2579L6.1823 11.0541C6.56758 11.4495 6.97547 11.6377 7.49602 11.6247V10.5233Z" fill="var(--fill-0, white)"/>
<path id="Vector 57" d="M6.80594 9.60729C6.78763 9.84593 6.80931 9.95834 6.89883 10.1248L6.07609 10.9343C5.69631 10.4898 5.53357 10.0024 5.69127 9.36843L6.80594 9.60729Z" fill="var(--fill-0, #727272)"/>
<path id="Vector 58" d="M7.17763 9.12992C7.00351 9.252 6.96039 9.32718 6.88569 9.46167L5.73121 9.22281C5.93165 8.68271 6.13845 8.44391 6.67337 8.1214L7.17763 9.12992Z" fill="var(--fill-0, #ABABAB)"/>
<path id="Vector 59" d="M8.1862 9.02356C7.72711 9.01401 7.46377 9.00739 7.31039 9.06337L6.80613 8.05485C7.10867 7.89529 7.47452 7.88897 8.19947 7.90888L8.1862 9.02356Z" fill="var(--fill-0, #DADDE2)"/>
<path id="Vector 60" d="M13.388 6.42258C13.1439 6.40827 12.971 6.4027 12.6184 6.39604L12.6317 5.28136C13.1076 5.27365 13.3081 5.27676 13.5605 5.29463L13.388 6.42258Z" fill="var(--fill-0, white)"/>
<path id="Vector 61" d="M13.7728 6.63512C13.6939 6.55669 13.6476 6.51548 13.5472 6.46261L13.7197 5.33467C14.3634 5.55774 14.578 5.76528 14.8742 6.18394L13.7728 6.63512Z" fill="var(--fill-0, #918F8F)"/>
<path id="Vector 62" d="M13.9852 7.27204C13.9961 7.008 13.9701 6.88969 13.8657 6.74124L14.9539 6.3166C15.1924 6.84941 15.2133 7.14571 15.0733 7.67014L13.9852 7.27204Z" fill="var(--fill-0, #ABABAB)"/>
<path id="Vector 63" d="M14.1046 8.81149L13.7065 7.71008C13.8069 7.63038 13.8579 7.57117 13.932 7.41814L15.0335 7.81624C14.7795 8.32307 14.5662 8.52922 14.1046 8.81149Z" fill="var(--fill-0, #DADDE2)"/>
<path id="Vector 64" d="M7.82779 6.42256C7.53752 6.41185 7.3441 6.41062 6.91217 6.42256L6.81928 5.32115C6.89099 5.30232 7.16843 5.2904 7.82779 5.26807V6.42256Z" fill="var(--fill-0, white)"/>
<path id="Vector 65" d="M6.75294 6.46237C6.33266 6.58738 6.15531 6.6572 5.91694 6.78085L5.58519 5.67944C5.99555 5.50122 6.23096 5.42765 6.66005 5.36096L6.75294 6.46237Z" fill="var(--fill-0, #ABABAB)"/>
<path id="Vector 66" d="M5.77104 6.84751C5.48764 7.00214 5.35115 7.11705 5.12082 7.3385L4.48386 6.36979C4.79732 6.11442 5.00566 5.97677 5.4393 5.7461L5.77104 6.84751Z" fill="var(--fill-0, #727272)"/>
<path id="Vector 67" d="M4.47053 8.09447C4.63114 7.84343 4.7365 7.70154 4.98806 7.44424L4.3511 6.48881C4.00626 6.78884 3.84513 6.98096 3.59472 7.35135L4.47053 8.09447Z" fill="var(--fill-0, #ABABAB)"/>
<path id="Vector 68" d="M4.12555 8.9042C4.19748 8.61985 4.25591 8.4754 4.39095 8.25397L3.48859 7.48431C3.24878 7.88954 3.13669 8.13137 2.99761 8.58572L4.12555 8.9042Z" fill="var(--fill-0, #DADDE2)"/>
<path id="Vector 69" d="M4.006 9.95272C3.99681 9.60546 4.00244 9.41089 4.07235 9.06364L2.95767 8.71862C2.84864 9.2165 2.82492 9.50146 2.82497 10.0191L4.006 9.95272Z" fill="var(--fill-0, #ABABAB)"/>
<path id="Vector 70" d="M4.21841 10.9476C4.09428 10.6076 4.05325 10.4264 4.00609 10.1116L2.83833 10.1646C2.90215 10.6242 2.96624 10.8699 3.117 11.2926L4.21841 10.9476Z" fill="var(--fill-0, #727272)"/>
<path id="Vector 71" d="M4.77569 11.8636C4.57362 11.623 4.46548 11.4581 4.2847 11.0939L3.17003 11.4389C3.3622 11.8873 3.51165 12.116 3.82025 12.5005L4.77569 11.8636Z" fill="var(--fill-0, #ABABAB)"/>
<path id="Vector 72" d="M5.50565 12.5138C5.22933 12.3291 5.10021 12.2121 4.89524 11.983L3.91326 12.6199C4.22028 12.9719 4.40646 13.1279 4.74927 13.3763L5.50565 12.5138Z" fill="var(--fill-0, white)"/>
<path id="Vector 73" d="M6.44779 12.978C6.12762 12.8641 5.94891 12.7895 5.63832 12.6065L4.88193 13.4558C5.25925 13.7008 5.47652 13.8174 5.87718 13.96L6.44779 12.978Z" fill="var(--fill-0, #727272)"/>
<path id="Vector 79" d="M13.2685 14.2784L13.2553 13.1384C13.6277 13.1394 13.8327 13.1217 14.1974 13.0841L14.3169 14.2105C14.0632 14.2625 13.8237 14.2755 13.2685 14.2784Z" fill="var(--fill-0, #DADDE2)"/>
<path id="Vector 80" d="M14.476 14.1592L14.3433 13.0446C14.7186 12.9891 14.9212 12.9377 15.2722 12.819L15.5907 13.9071C15.1628 14.0483 14.9157 14.1062 14.476 14.1592Z" fill="var(--fill-0, white)"/>
<path id="Vector 81" d="M15.7501 13.8669L15.4184 12.7655C15.7423 12.6537 15.9303 12.5764 16.2809 12.394L16.7586 13.4423C16.3708 13.6425 16.1519 13.7434 15.7501 13.8669Z" fill="var(--fill-0, white)"/>
<path id="Vector 82" d="M17.8467 11.2661C17.6096 11.4925 17.4806 11.6018 17.2628 11.7704L17.9661 12.7258C18.2795 12.4776 18.4565 12.3188 18.7623 12.0092L17.8467 11.2661Z" fill="var(--fill-0, white)"/>
<path id="Vector 83" d="M19.1207 9.44817C18.9468 9.82133 18.8284 10.0155 18.6164 10.324L19.6117 10.9742C19.8494 10.625 19.9726 10.4153 20.1557 10.0055L19.1207 9.44817Z" fill="var(--fill-0, white)"/>
<path id="Vector 84" d="M19.4522 8.47939C19.3667 8.81354 19.3007 8.99507 19.1735 9.3154L20.2219 9.85947C20.3816 9.45995 20.4696 9.23267 20.5934 8.74479L19.4522 8.47939Z" fill="var(--fill-0, white)"/>
<path id="Vector 85" d="M19.4921 8.32026C19.5453 8.00915 19.568 7.82789 19.585 7.48425L20.7527 7.44444C20.7416 7.93775 20.7093 8.18453 20.62 8.57239L19.4921 8.32026Z" fill="var(--fill-0, white)"/>
<path id="Vector 86" d="M19.5452 6.35616C19.5963 6.73469 19.6012 6.94664 19.585 7.32487L20.7528 7.28506C20.7647 6.89258 20.7617 6.6676 20.713 6.25L19.5452 6.35616Z" fill="var(--fill-0, white)"/>
<path id="Vector 87" d="M19.3064 5.29461C19.4266 5.66494 19.4791 5.86631 19.532 6.21024L20.713 6.10408C20.6526 5.70732 20.6043 5.48408 20.4742 5.08229L19.3064 5.29461Z" fill="var(--fill-0, white)"/>
<path id="Vector 88" d="M19.2398 5.14856C19.1265 4.84941 19.0548 4.67632 18.855 4.31255L19.9299 3.83483C20.1669 4.26333 20.2654 4.50115 20.4076 4.92297L19.2398 5.14856Z" fill="var(--fill-0, white)"/>
<path id="Vector 89" d="M18.7755 4.1803C18.608 3.91278 18.503 3.75779 18.2713 3.46372L19.1839 2.7545C19.49 3.09987 19.6313 3.30805 19.8474 3.69667L18.7755 4.1803Z" fill="var(--fill-0, white)"/>
<path id="Vector 90" d="M17.5017 2.69395C17.8007 2.93209 17.9427 3.08111 18.1785 3.35745L19.1074 2.64087C18.8215 2.30421 18.6452 2.12818 18.2979 1.84467L17.5017 2.69395Z" fill="var(--fill-0, white)"/>
<path id="Vector 91" d="M17.3956 2.60087C17.1054 2.37546 16.942 2.25603 16.6525 2.08334L17.2363 1.07482C17.6257 1.31407 17.8356 1.45969 18.1918 1.73832L17.3956 2.60087Z" fill="var(--fill-0, white)"/>
<path id="Vector 92" d="M15.7235 1.61907C16.0289 1.73114 16.2037 1.82261 16.5197 2.0039L17.0903 1.00865C16.7083 0.792361 16.492 0.685824 16.0951 0.544198L15.7235 1.61907Z" fill="var(--fill-0, white)"/>
<path id="Vector 98" d="M7.23059 13.1373C6.98853 13.1192 6.85991 13.0911 6.6069 13.0179L6.02303 13.9999C6.49565 14.173 6.75787 14.2282 7.23059 14.2387V13.1373Z" fill="var(--fill-0, #DADDE2)"/>
</g>
</svg>
